<svg width="437" height="108" viewBox="0 0 437 108" fill="none" xmlns="http://www.w3.org/2000/svg">
<path d="M109 4V104" stroke="#4D4D4D" stroke-width="8" stroke-miterlimit="0" stroke-linecap="square" stroke-linejoin="bevel"/>
<path d="M146.184 76.72C142.824 76.72 139.604 76.28 136.524 75.4C133.444 74.48 130.964 73.3 129.084 71.86L132.384 64.54C134.184 65.82 136.304 66.88 138.744 67.72C141.224 68.52 143.724 68.92 146.244 68.92C148.164 68.92 149.704 68.74 150.864 68.38C152.064 67.98 152.944 67.44 153.504 66.76C154.064 66.08 154.344 65.3 154.344 64.42C154.344 63.3 153.904 62.42 153.024 61.78C152.144 61.1 150.984 60.56 149.544 60.16C148.104 59.72 146.504 59.32 144.744 58.96C143.024 58.56 141.284 58.08 139.524 57.52C137.804 56.96 136.224 56.24 134.784 55.36C133.344 54.48 132.164 53.32 131.244 51.88C130.364 50.44 129.924 48.6 129.924 46.36C129.924 43.96 130.564 41.78 131.844 39.82C133.164 37.82 135.124 36.24 137.724 35.08C140.364 33.88 143.664 33.28 147.624 33.28C150.264 33.28 152.864 33.6 155.424 34.24C157.984 34.84 160.244 35.76 162.204 37L159.204 44.38C157.244 43.26 155.284 42.44 153.324 41.92C151.364 41.36 149.444 41.08 147.564 41.08C145.684 41.08 144.144 41.3 142.944 41.74C141.744 42.18 140.884 42.76 140.364 43.48C139.844 44.16 139.584 44.96 139.584 45.88C139.584 46.96 140.024 47.84 140.904 48.52C141.784 49.16 142.944 49.68 144.384 50.08C145.824 50.48 147.404 50.88 149.124 51.28C150.884 51.68 152.624 52.14 154.344 52.66C156.104 53.18 157.704 53.88 159.144 54.76C160.584 55.64 161.744 56.8 162.624 58.24C163.544 59.68 164.004 61.5 164.004 63.7C164.004 66.06 163.344 68.22 162.024 70.18C160.704 72.14 158.724 73.72 156.084 74.92C153.484 76.12 150.184 76.72 146.184 76.72ZM188.226 43.24C190.786 43.24 193.066 43.76 195.066 44.8C197.106 45.8 198.706 47.36 199.866 49.48C201.026 51.56 201.606 54.24 201.606 57.52V76H192.246V58.96C192.246 56.36 191.666 54.44 190.506 53.2C189.386 51.96 187.786 51.34 185.706 51.34C184.226 51.34 182.886 51.66 181.686 52.3C180.526 52.9 179.606 53.84 178.926 55.12C178.286 56.4 177.966 58.04 177.966 60.04V76H168.606V31.48H177.966V52.66L175.866 49.96C177.026 47.8 178.686 46.14 180.846 44.98C183.006 43.82 185.466 43.24 188.226 43.24ZM224.305 76.48C220.865 76.48 217.805 75.76 215.125 74.32C212.485 72.88 210.385 70.92 208.825 68.44C207.305 65.92 206.545 63.06 206.545 59.86C206.545 56.62 207.305 53.76 208.825 51.28C210.385 48.76 212.485 46.8 215.125 45.4C217.805 43.96 220.865 43.24 224.305 43.24C227.705 43.24 230.745 43.96 233.425 45.4C236.105 46.8 238.205 48.74 239.725 51.22C241.245 53.7 242.005 56.58 242.005 59.86C242.005 63.06 241.245 65.92 239.725 68.44C238.205 70.92 236.105 72.88 233.425 74.32C230.745 75.76 227.705 76.48 224.305 76.48ZM224.305 68.8C225.865 68.8 227.265 68.44 228.505 67.72C229.745 67 230.725 65.98 231.445 64.66C232.165 63.3 232.525 61.7 232.525 59.86C232.525 57.98 232.165 56.38 231.445 55.06C230.725 53.74 229.745 52.72 228.505 52C227.265 51.28 225.865 50.92 224.305 50.92C222.745 50.92 221.345 51.28 220.105 52C218.865 52.72 217.865 53.74 217.105 55.06C216.385 56.38 216.025 57.98 216.025 59.86C216.025 61.7 216.385 63.3 217.105 64.66C217.865 65.98 218.865 67 220.105 67.72C221.345 68.44 222.745 68.8 224.305 68.8ZM265.961 76.48C263.241 76.48 260.861 75.88 258.821 74.68C256.781 73.48 255.181 71.66 254.021 69.22C252.901 66.74 252.341 63.62 252.341 59.86C252.341 56.06 252.881 52.94 253.961 50.5C255.041 48.06 256.601 46.24 258.641 45.04C260.681 43.84 263.121 43.24 265.961 43.24C269.001 43.24 271.721 43.94 274.121 45.34C276.561 46.7 278.481 48.62 279.881 51.1C281.321 53.58 282.041 56.5 282.041 59.86C282.041 63.26 281.321 66.2 279.881 68.68C278.481 71.16 276.561 73.08 274.121 74.44C271.721 75.8 269.001 76.48 265.961 76.48ZM246.881 87.64V43.72H255.821V50.32L255.641 59.92L256.241 69.46V87.64H246.881ZM264.341 68.8C265.901 68.8 267.281 68.44 268.481 67.72C269.721 67 270.701 65.98 271.421 64.66C272.181 63.3 272.561 61.7 272.561 59.86C272.561 57.98 272.181 56.38 271.421 55.06C270.701 53.74 269.721 52.72 268.481 52C267.281 51.28 265.901 50.92 264.341 50.92C262.781 50.92 261.381 51.28 260.141 52C258.901 52.72 257.921 53.74 257.201 55.06C256.481 56.38 256.121 57.98 256.121 59.86C256.121 61.7 256.481 63.3 257.201 64.66C257.921 65.98 258.901 67 260.141 67.72C261.381 68.44 262.781 68.8 264.341 68.8ZM287.587 76V34H295.627L320.407 64.24H316.507V34H326.107V76H318.127L293.287 45.76H297.187V76H287.587ZM350.024 76.48C346.344 76.48 343.104 75.76 340.304 74.32C337.544 72.88 335.404 70.92 333.884 68.44C332.364 65.92 331.604 63.06 331.604 59.86C331.604 56.62 332.344 53.76 333.824 51.28C335.344 48.76 337.404 46.8 340.004 45.4C342.604 43.96 345.544 43.24 348.824 43.24C351.984 43.24 354.824 43.92 357.344 45.28C359.904 46.6 361.924 48.52 363.404 51.04C364.884 53.52 365.624 56.5 365.624 59.98C365.624 60.34 365.604 60.76 365.564 61.24C365.524 61.68 365.484 62.1 365.444 62.5H339.224V57.04H360.524L356.924 58.66C356.924 56.98 356.584 55.52 355.904 54.28C355.224 53.04 354.284 52.08 353.084 51.4C351.884 50.68 350.484 50.32 348.884 50.32C347.284 50.32 345.864 50.68 344.624 51.4C343.424 52.08 342.484 53.06 341.804 54.34C341.124 55.58 340.784 57.06 340.784 58.78V60.22C340.784 61.98 341.164 63.54 341.924 64.9C342.724 66.22 343.824 67.24 345.224 67.96C346.664 68.64 348.344 68.98 350.264 68.98C351.984 68.98 353.484 68.72 354.764 68.2C356.084 67.68 357.284 66.9 358.364 65.86L363.344 71.26C361.864 72.94 360.004 74.24 357.764 75.16C355.524 76.04 352.944 76.48 350.024 76.48ZM365.517 76L379.977 57.04L379.797 62.2L365.937 43.72H376.437L385.197 55.78L381.237 55.9L390.297 43.72H400.257L386.337 62.02V56.98L400.737 76H390.117L380.937 63.16L384.837 63.7L375.717 76H365.517ZM423.114 76V69.7L422.514 68.32V57.04C422.514 55.04 421.894 53.48 420.654 52.36C419.454 51.24 417.594 50.68 415.074 50.68C413.354 50.68 411.654 50.96 409.974 51.52C408.334 52.04 406.934 52.76 405.774 53.68L402.414 47.14C404.174 45.9 406.294 44.94 408.774 44.26C411.254 43.58 413.774 43.24 416.334 43.24C421.254 43.24 425.074 44.4 427.794 46.72C430.514 49.04 431.874 52.66 431.874 57.58V76H423.114ZM413.274 76.48C410.754 76.48 408.594 76.06 406.794 75.22C404.994 74.34 403.614 73.16 402.654 71.68C401.694 70.2 401.214 68.54 401.214 66.7C401.214 64.78 401.674 63.1 402.594 61.66C403.554 60.22 405.054 59.1 407.094 58.3C409.134 57.46 411.794 57.04 415.074 57.04H423.654V62.5H416.094C413.894 62.5 412.374 62.86 411.534 63.58C410.734 64.3 410.334 65.2 410.334 66.28C410.334 67.48 410.794 68.44 411.714 69.16C412.674 69.84 413.974 70.18 415.614 70.18C417.174 70.18 418.574 69.82 419.814 69.1C421.054 68.34 421.954 67.24 422.514 65.8L423.954 70.12C423.274 72.2 422.034 73.78 420.234 74.86C418.434 75.94 416.114 76.48 413.274 76.48Z" fill="#4D4D4D"/>
<circle opacity="0.9" cx="45" cy="54.6987" r="45" fill="#FF834F"/>
<path fill-rule="evenodd" clip-rule="evenodd" d="M54.987 31.3321L52.1644 29.9738C51.2164 29.5191 49.7063 29.5576 48.8063 30.0625L40.248 35.0551C39.2185 35.6927 38.384 36.6031 37.8326 37.6903L23.0182 70.4223C22.6744 71.1852 22.6464 72.0607 22.94 72.857C23.2337 73.6534 23.8251 74.3058 24.585 74.6714L45.7835 84.8531C47.368 85.6084 48.6559 84.6629 49.3779 83.0789L64.1907 50.3441C64.6139 49.3987 64.7987 47.7796 64.5941 46.7415L62.2814 36.5324C62.0784 35.497 61.1367 34.2824 60.1887 33.8276L58.4691 32.9998C60.1887 25.6987 60.1887 18.1987 56.5783 11.1987C55.0061 10.81 54.5 10.6987 52.8798 10.4024C57.106 16.9609 56.9305 26.5591 54.987 31.3321ZM56.5248 43.2171C57.0073 42.7708 57.3963 42.2311 57.6696 41.6287C58.0611 40.7603 58.1999 39.7929 58.0701 38.8379C57.9404 37.8829 57.5472 36.9791 56.9359 36.2306C56.5568 36.9229 56.1703 37.5462 55.7943 38.101C55.6329 38.3373 55.4279 38.5291 55.1964 38.6627C54.8261 38.875 54.393 38.9524 53.9682 38.8821C53.5433 38.8119 53.1517 38.5982 52.8578 38.2761C52.5638 37.9539 52.3847 37.5425 52.35 37.1092C52.3153 36.6759 52.4269 36.2463 52.6666 35.891C52.737 35.7953 53.0877 35.2404 53.5592 34.3663C52.517 34.2443 51.4696 34.4539 50.5633 34.966C49.657 35.4781 48.9372 36.2669 48.5044 37.2222C47.9531 38.4424 47.9075 39.8434 48.3775 41.1178C48.8475 42.3921 49.7946 43.4357 51.0111 44.0193C51.6121 44.3079 52.2611 44.475 52.921 44.511C53.5809 44.547 54.2389 44.4512 54.8572 44.2292C55.4756 44.0072 56.0422 43.6633 56.5248 43.2171Z" fill="#F8F8F8"/>
</svg>
