<svg width="92" height="92" viewBox="0 0 92 92" fill="none" xmlns="http://www.w3.org/2000/svg">
<circle cx="45" cy="47" r="45" fill="#FF834F"/>
<path d="M59.9786 1.52983C59.5928 1.2222 59.1074 1.07456 58.6235 1.11762C58.1396 1.16067 57.6944 1.39111 57.3805 1.76099C57.0666 2.13088 56.9082 2.61173 56.9382 3.10351C56.9683 3.59529 57.1844 4.06014 57.5417 4.40135C64.286 10.3083 62.4922 18.6633 60.4055 23.7884L57.5829 22.4301C56.6349 21.9753 55.1248 22.0139 54.2248 22.5188L45.6665 27.5114C44.637 28.1489 43.8024 29.0594 43.2511 30.1466L28.4366 62.8786C28.0929 63.6415 28.0648 64.5169 28.3585 65.3133C28.6521 66.1097 29.2436 66.7621 30.0034 67.1277L51.202 77.3093C52.7865 78.0647 54.0744 77.1192 54.7963 75.5351L69.6092 42.8004C70.0323 41.855 70.2172 40.2359 70.0126 39.1977L67.6999 28.9886C67.4969 27.9533 66.5552 26.7387 65.6072 26.2839L63.8876 25.4561C66.6692 18.5386 67.8804 8.45334 59.9786 1.52983ZM63.0881 34.085C62.8148 34.6874 62.4258 35.2271 61.9432 35.6734C61.4607 36.1196 60.894 36.4635 60.2757 36.6855C59.6573 36.9075 58.9994 37.0033 58.3395 36.9673C57.6795 36.9312 57.0306 36.7642 56.4296 36.4756C55.2131 35.892 54.2659 34.8484 53.796 33.5741C53.326 32.2997 53.3716 30.8987 53.9228 29.6785C54.3557 28.7232 55.0755 27.9343 55.9818 27.4223C56.8881 26.9102 57.9355 26.7006 58.9776 26.8225C58.5062 27.6967 58.1555 28.2516 58.0851 28.3473C57.8454 28.7026 57.7338 29.1322 57.7685 29.5655C57.8032 29.9988 57.9823 30.4102 58.2762 30.7323C58.5702 31.0545 58.9617 31.2681 59.3866 31.3384C59.8115 31.4087 60.2446 31.3313 60.6149 31.119C60.8463 30.9854 61.0514 30.7936 61.2128 30.5572C61.5887 30.0025 61.9753 29.3792 62.3543 28.6868C62.9656 29.4354 63.3588 30.3391 63.4886 31.2942C63.6184 32.2492 63.4796 33.2166 63.0881 34.085Z" fill="#F8F8F8"/>
</svg>
