<svg width="90" height="91" viewBox="0 0 90 91" fill="none" xmlns="http://www.w3.org/2000/svg">
<circle opacity="0.9" cx="45" cy="45.6987" r="45" fill="#FF834F"/>
<path fill-rule="evenodd" clip-rule="evenodd" d="M54.987 22.3321L52.1644 20.9738C51.2164 20.5191 49.7063 20.5576 48.8063 21.0625L40.248 26.0551C39.2185 26.6927 38.384 27.6031 37.8326 28.6903L23.0182 61.4223C22.6744 62.1852 22.6464 63.0607 22.94 63.857C23.2337 64.6534 23.8251 65.3058 24.585 65.6714L45.7835 75.8531C47.368 76.6084 48.6559 75.6629 49.3779 74.0789L64.1907 41.3441C64.6139 40.3987 64.7987 38.7796 64.5941 37.7415L62.2814 27.5324C62.0784 26.497 61.1367 25.2824 60.1887 24.8276L58.4691 23.9998C60.1887 16.6987 60.1887 9.19869 56.5783 2.19872C55.0061 1.81005 54.5 1.69869 52.8798 1.40245C57.106 7.96087 56.9305 17.5591 54.987 22.3321ZM56.5248 34.2171C57.0073 33.7709 57.3963 33.2311 57.6696 32.6287C58.0611 31.7603 58.1999 30.7929 58.0701 29.8379C57.9404 28.8829 57.5472 27.9791 56.9359 27.2306C56.5568 27.9229 56.1703 28.5462 55.7943 29.101C55.6329 29.3373 55.4279 29.5291 55.1964 29.6628C54.8261 29.875 54.393 29.9524 53.9682 29.8821C53.5433 29.8119 53.1517 29.5982 52.8578 29.2761C52.5638 28.9539 52.3847 28.5425 52.35 28.1092C52.3153 27.6759 52.4269 27.2463 52.6666 26.891C52.737 26.7953 53.0877 26.2404 53.5592 25.3663C52.517 25.2443 51.4696 25.4539 50.5633 25.966C49.657 26.4781 48.9372 27.2669 48.5044 28.2222C47.9531 29.4424 47.9075 30.8434 48.3775 32.1178C48.8475 33.3921 49.7946 34.4357 51.0111 35.0193C51.6121 35.3079 52.2611 35.475 52.921 35.511C53.5809 35.547 54.2389 35.4513 54.8572 35.2292C55.4756 35.0072 56.0422 34.6633 56.5248 34.2171Z" fill="#F8F8F8"/>
</svg>
